<?xml version="1.0" encoding="UTF-8"?>
<svg xmlns="http://www.w3.org/2000/svg" viewBox="0 0 46.436 62.428">
  <defs>
    <style>
      .cls-1 {
        fill: #003180;
      }

      .cls-2 {
        fill: #3b6ab4;
      }

      .cls-3 {
        fill: #161519;
      }

      .cls-4 {
        fill: #3162b0;
      }
    </style>
  </defs>
  <g id="imageandpalette"/>
  <g id="Layer_1" data-name="Layer 1">
    <g>
      <path class="cls-3" d="M18.692,19.219s3.118,24.437-1.674,43.209h5.058s-1.265-14.107,0-15.305c1.16-1.099,18.137-12.846,18.137-12.846,0,0-15.275,9.885-18.469,10.782,0,0-1.909-24.192-3.051-25.84Z"/>
      <g>
        <path class="cls-4" d="M34.657,24.64c.315,1.004,.485,2.072,.485,3.18,0,5.863-4.752,10.618-10.618,10.618-3.566,0-6.723-1.76-8.644-4.458-1.436,.73-3.063,1.109-4.786,1.139C2.109,35.275-1.04,26.541,.293,20.832c1.697-7.266,5.609-9.851,9.47-8.32C10.023,4.03,13.064,0,21.61,0c8.712,0,15.774,7.062,15.774,15.774,0,3.287-1.004,6.34-2.727,8.866Z"/>
        <path class="cls-1" d="M34.657,24.64c.315,1.004,.485,2.072,.485,3.18,0,5.863-4.752,10.618-10.618,10.618-1.435,0-2.803-.285-4.052-.801-.023-.01,0,0,0,0L21.61,0s.134,0,.201,.001c8.62,.107,15.573,7.128,15.573,15.773,0,3.287-1.004,6.34-2.727,8.866Z"/>
        <ellipse class="cls-4" cx="36.148" cy="20.583" rx="7.533" ry="5.906"/>
        <ellipse class="cls-2" cx="40.878" cy="32.981" rx="5.558" ry="4.495"/>
      </g>
    </g>
  </g>
</svg>