<?xml version="1.0" encoding="UTF-8"?>
<svg xmlns="http://www.w3.org/2000/svg" viewBox="0 0 408.073 779.594">
  <defs>
    <style>
      .cls-1 {
        fill: #fff;
      }

      .cls-2 {
        fill: #003180;
      }

      .cls-3 {
        fill: #aad900;
      }
    </style>
  </defs>
  <g id="imageandpalette"/>
  <g id="Layer_1" data-name="Layer 1">
    <g>
      <g>
        <g>
          <path class="cls-2" d="M184.59,749.748c-.053,7.776-3.908,17.352-10.808,17.373-7.823,.024-18.899-6.544-19.187-14.192-.007-.185,.086-.36,.23-.45l5.542-3.455c.137-.086,.223-.243,.223-.42-.01-8.405-.411-21.277,8.467-19.176,7.559,1.789,15.597,10.966,15.533,20.32Z"/>
          <path class="cls-2" d="M408.073,40.686V615.061c0,13.222-10.718,23.94-23.94,23.94h-29.46l.06,5.75c0,6.02-4.28,11.49-9.61,11.87-5.46,.39-8.51-2.92-9.48-9.72-1.93-2.38-3.76-5.11-5.3-7.62-.62-1.02-1.2-2-1.71-2.91,.15,3.71,.29,8.33,.29,9.56v70.316c0,7.78-5.4,14.47-12.3,14.6-3.68,.06-8.4-4.06-12.46-8.98-3.64-4.43-6.75-9.52-8.05-12.78,0,0,4.967-51.297,4.817-59.3-.13-6.967-8.947-5.09-15.007-1.63-.42,.24-.5,.66-.48,1.09v31.57c0,5.64-3.55,10.69-8.51,11.49-3.08,.51-7.46-3.1-11.36-7.64-3.91-4.56-7.35-10.06-8.5-13.28,0,0,.51-4.09,.39-7.04-.08-1.79-.38-3.15-1.17-2.91-22.14,6.64-57.15,10.85-68.22,11.97-1.79,.18-3.15,1.87-3.15,3.89v31.45c0,6.96-4.33,13.19-10.44,14.3-3.97,.72-9.59-3.53-14.35-9.09-4.61-5.39-8.39-12.02-9.04-16.58l8.41-21.05,.42-1.05c0-2.08-1.36-3.82-3.19-4.11-8.2-1.35-16.25-3.2-24.13-5.53-1.43-.43-2.83,.76-2.83,2.43v97.14c0,6.97-4.33,13.2-10.44,14.31-3.82,.69-9.5-3.36-14.3-8.67-5.01-5.55-9.07-12.47-9.07-16.84l8.69-89.85,.12-1.19c-.25-5.04-3.17-9.4-4.86-10.22-8.58-4.14-11.048-5.208-19.711-9.312-3.167-1.5-3.667,.857-3.667,1.667l-.46,2.545c-.174,.962-.337,1.93-.399,2.906-.335,5.322-3.803,9.953-8.543,10.684-2.86,.45-7.31-2.74-11.26-6.98-4.59-4.9-8.5-11.19-8.5-14.82l8.27-3.82c-.69-6.16-.483,8.547-4.663,4.407,0,0-13.086-8.161-17.967-9.888-12.472-4.414-32.699-23.619-32.699-36.839L9.063,181.206V40.696c0-13.227,10.723-23.95,23.95-23.95H384.133c13.222,0,23.94,10.718,23.94,23.94Z"/>
        </g>
        <g>
          <path class="cls-3" d="M177.315,745.451c.462,8.952-5.905,16.62-13.833,15.852-7.081-.686-11.13-6.874-11.13-14.19v-.192c0-8.395,4.414-18.371,12.776-18.371,7.265,0,11.735,8.148,12.187,16.9Z"/>
          <path class="cls-3" d="M399.01,23.95V592.624c0,16.365-13.266,29.631-29.631,29.631h-18.019c-3.166,0-5.723,2.584-5.69,5.75h0c0,6.02-4.28,11.49-9.61,11.87-5.81,.41-8.125-1.056-9.63-11.09-.083-.554-1.652-.837-2.069-.858-5.408-.274-3.501,13.579-4.371,14.389-.22,.2,0,60.405,0,60.405,0,7.78-5.39,14.47-12.29,14.6-7,.13-12.71-6.22-12.71-14.09l1.055-50.363c.665,20.216,0-15.081-.707-18.054-1.387-5.829-12.288-3.644-18.348-.184-.42,.25-.5,.66-.48,1.09v31.57c0,5.65-3.55,10.7-8.51,11.5-6.18,1.01-11.49-4.38-11.49-11.15l.08-19.6c0-.27-.04-.54-.16-.78-.45-.97-1.72-1.83-3.18-1.29-21.22,7.76-61.208,8.551-73.328,9.781-1.79,.18-3.932,6.009-3.932,8.019v31.45c0,6.96-4.33,13.2-10.44,14.3-7.81,1.41-14.56-5.36-14.56-13.91v-33.86c0-2.08-1.058-8.593-2.878-8.883-8.21-1.34-16.562,1.573-24.442-.757-1.43-.43-2.83,.77-2.83,2.43v97.147c0,6.97-4.33,13.2-10.44,14.3-7.81,1.41-14.56-5.36-14.56-13.91v-102.637c-.25-5.04-3.17-9.4-4.86-10.21-5.069-2.452-11.428-4.338-15.783-5.304-2.868-.636-5.863,.099-8.112,1.99,0,0,1.029,10.771-8.875,11.805-6.21,.648-11.44-4.4-11.44-11.16v-3.991c0-3.725-7.933-9.726-14.445-14.023-4.027-2.658-8.476-4.677-13.203-5.644-10.915-2.233-19.122-11.886-19.122-23.454V29.641C0,13.271,13.271,0,29.641,0H375.07c13.22,0,23.94,10.72,23.94,23.95Z"/>
        </g>
      </g>
      <g id="shine">
        <path class="cls-1" d="M368.045,617.166c1.266-1.338,18.71,2.161,23.01-5.522,4.3-7.683,5.027-18.348,3.682-21.629-1.371-3.344-3.191,8.851-7.21,18.715-1.687,4.142-19.482,8.437-19.482,8.437Z"/>
        <path class="cls-1" d="M395.159,582.084c.813-.703,.625-6.157-1.291-6.89-.287-.11-2.714,10.352,1.291,6.89Z"/>
        <g>
          <path class="cls-1" d="M10.446,77.501c.181,5.918-1.572,31.845-5.04,31.845-2.862,0-2.569-75.745,1.429-86.213C11.941,9.767,16.741,6.478,39.516,7.048c-5.871-.147-24.02,2.464-26.918,17.649-4.585,24.023-2.99,25.424-2.152,52.804Z"/>
          <path class="cls-1" d="M7.215,126.977c3.483-11.205-.606-15.284-2.928-10.111s1.105,15.975,2.928,10.111Z"/>
        </g>
        <path class="cls-1" d="M48.086,633.451s-1.549-1.275-.112,5.797c1.108,5.452,7.699,9.189,10.659,6.6,1.794-1.569-6.625-.922-8.574-7.991-1.122-4.069-1.974-4.406-1.974-4.406Z"/>
        <path class="cls-1" d="M153.142,682.028s-2.437,8.273-.566,15.941c1.442,5.911,8.061,10.668,11.051,7.629,1.812-1.841-6.297-1.448-8.706-9.078-1.387-4.393-1.779-14.492-1.779-14.492Z"/>
        <path class="cls-1" d="M97.214,739.36s-1.001,9.801,.607,16.679c1.24,5.303,6.931,9.57,9.502,6.844,1.558-1.652-5.414-1.299-7.486-8.144-1.193-3.941-2.624-15.379-2.624-15.379Z"/>
        <path class="cls-1" d="M258.575,652.869s-1.923,8.468-.447,16.318c1.138,6.051,6.362,10.92,8.723,7.81,1.43-1.885-4.97-1.482-6.872-9.293-1.095-4.497-1.404-14.835-1.404-14.835Z"/>
        <path class="cls-1" d="M153.799,741.654s-1.101,5.339-.352,8.482c1.367,5.734,6.432,11.765,9.545,9.092,1.887-1.62-3.487-1.51-6.945-8.43-.746-1.493-2.248-9.143-2.248-9.143Z"/>
        <path class="cls-1" d="M326.783,621.981s-.029,5.391,.692,8.288c1.316,5.285,5.426,10.554,7.63,7.788,1.336-1.676-2.696-1.14-5.643-7.374-.636-1.345-2.679-8.701-2.679-8.701Z"/>
        <path class="cls-1" d="M114.525,758.826c-1.049,1.711,.372,3.44,2.02,1.713,1.648-1.727,.412-5.677-2.02-1.713Z"/>
        <path class="cls-1" d="M296.328,687.015s-.919,11.346,.558,19.31c1.138,6.139,6.362,11.079,8.723,7.923,1.43-1.912-4.97-1.504-6.872-9.428-1.095-4.562-2.409-17.805-2.409-17.805Z"/>
        <path class="cls-1" d="M313.382,709.336c-1.421,2.275,.011,4.191,2.126,1.803,2.115-2.388,1.166-7.075-2.126-1.803Z"/>
      </g>
    </g>
  </g>
</svg>