<svg xmlns="http://www.w3.org/2000/svg" width="546.631" height="143.971" viewBox="0 0 546.631 143.971">
  <g id="Group_88" data-name="Group 88" transform="translate(-96.469 -448.624)">
    <g id="Layer_1" data-name="Layer 1" transform="translate(302.756 526.736)">
      <g id="Group_77" data-name="Group 77" transform="translate(-4 -7)">
        <path id="Path_118" data-name="Path 118" d="M18.692,19.219s3.118,24.437-1.674,43.209h5.058s-1.265-14.107,0-15.305c1.16-1.1,18.137-12.846,18.137-12.846S24.938,44.162,21.744,45.059c0,0-1.909-24.192-3.051-25.84Z" fill="#003180"/>
        <g id="Group_76" data-name="Group 76">
          <path id="Path_119" data-name="Path 119" d="M34.657,24.64A10.617,10.617,0,0,1,15.88,33.98a10.931,10.931,0,0,1-4.786,1.139C2.109,35.275-1.04,26.541.293,20.832c1.7-7.266,5.609-9.851,9.47-8.32C10.023,4.03,13.064,0,21.61,0A15.774,15.774,0,0,1,34.657,24.64Z" fill="#ff91c8"/>
          <path id="Path_120" data-name="Path 120" d="M34.657,24.64a10.624,10.624,0,0,1-14.185,13h0L21.61,0h.2A15.775,15.775,0,0,1,34.657,24.64Z" fill="#ff69b3"/>
          <ellipse id="Ellipse_5" data-name="Ellipse 5" cx="7.533" cy="5.906" rx="7.533" ry="5.906" transform="translate(28.615 14.677)" fill="#ff91c8"/>
          <ellipse id="Ellipse_6" data-name="Ellipse 6" cx="5.558" cy="4.495" rx="5.558" ry="4.495" transform="translate(35.32 28.486)" fill="#ff91c8"/>
        </g>
      </g>
    </g>
    <g id="Layer_1-2" data-name="Layer 1" transform="translate(505.649 531.627)">
      <g id="Group_77-2" data-name="Group 77" transform="translate(-4 -7)">
        <path id="Path_118-2" data-name="Path 118" d="M18.564,19.219s2.88,23.487-1.546,41.53h4.673s-1.169-13.559,0-14.71c1.072-1.056,16.755-12.347,16.755-12.347s-14.111,9.5-17.062,10.363c0,0-1.764-23.252-2.818-24.836Z" transform="translate(-1.297 -1.465)" fill="#003180"/>
        <g id="Group_76-2" data-name="Group 76" transform="translate(0)">
          <path id="Path_119-2" data-name="Path 119" d="M32.016,22.762A9.808,9.808,0,0,1,14.67,31.39a10.1,10.1,0,0,1-4.421,1.052c-8.3.144-11.209-7.924-9.978-13.2,1.568-6.712,5.182-9.1,8.748-7.686C9.259,3.723,12.068,0,19.963,0A14.572,14.572,0,0,1,32.016,22.762Z" transform="translate(0 0)" fill="#ff91c8"/>
          <path id="Path_120-2" data-name="Path 120" d="M33.575,22.762a9.814,9.814,0,0,1-13.1,12.007h0L21.522,0h.186A14.573,14.573,0,0,1,33.575,22.762Z" transform="translate(-1.559)" fill="#ff69b3"/>
          <ellipse id="Ellipse_5-2" data-name="Ellipse 5" cx="6.959" cy="5.456" rx="6.959" ry="5.456" transform="translate(26.434 13.559)" fill="#ff91c8"/>
          <ellipse id="Ellipse_6-2" data-name="Ellipse 6" cx="5.134" cy="4.152" rx="5.134" ry="4.152" transform="translate(32.628 26.315)" fill="#ff91c8"/>
        </g>
      </g>
    </g>
    <g id="Layer_1-3" data-name="Layer 1" transform="translate(243.756 526.736)">
      <g id="Group_77-3" data-name="Group 77" transform="translate(-16.986 -24.459)">
        <path id="Path_118-3" data-name="Path 118" d="M19.16,19.219s3.99,31.271-2.142,55.293h6.473s-1.619-18.052,0-19.585C24.975,53.52,46.7,38.488,46.7,38.488s-19.547,12.649-23.634,13.8c0,0-2.443-30.958-3.9-33.066Z" transform="translate(4.759 5.375)" fill="#003180"/>
        <g id="Group_76-3" data-name="Group 76" transform="translate(0)">
          <path id="Path_119-3" data-name="Path 119" d="M44.349,31.531A13.586,13.586,0,0,1,20.321,43.483,13.988,13.988,0,0,1,14.2,44.94C2.7,45.14-1.331,33.964.375,26.658c2.172-9.3,7.178-12.606,12.118-10.647C12.826,5.157,16.718,0,27.654,0a20.186,20.186,0,0,1,16.7,31.531Z" transform="translate(0 0)" fill="#ff91c8"/>
          <path id="Path_120-3" data-name="Path 120" d="M38.627,31.531A13.594,13.594,0,0,1,20.475,48.163h0L21.931,0h.257a20.186,20.186,0,0,1,16.439,31.53Z" transform="translate(5.722)" fill="#ff69b3"/>
          <ellipse id="Ellipse_5-3" data-name="Ellipse 5" cx="9.64" cy="7.558" rx="9.64" ry="7.558" transform="translate(36.618 18.782)" fill="#ff91c8"/>
          <ellipse id="Ellipse_6-3" data-name="Ellipse 6" cx="7.112" cy="5.752" rx="7.112" ry="5.752" transform="translate(45.198 36.452)" fill="#ff91c8"/>
        </g>
      </g>
    </g>
    <g id="Group_81" data-name="Group 81" transform="translate(391.302 480.665)">
      <path id="Path_72" data-name="Path 72" d="M134.783,154.6s-.228,22.079-4.333,39.159h4.333s.667-9.928.771-13.408c.189-6.318.745-25.751.745-25.751Z" transform="translate(-118.741 -92.259)" fill="#003180"/>
      <path id="Path_73" data-name="Path 73" d="M137.214,123.675c-11.125,30.674-16.237,59.231-11.125,66.064,3.372,4.506,9.832,11.574,14.188,11.587,5.224.015,5.535-7.079,9.581-7.079,14.514,0-.571-54.5-6.069-67.522-.923-2.185-3.882-10.47-6.574-3.048Z" transform="translate(-124.1 -120.649)" fill="#aad900"/>
      <path id="Path_74" data-name="Path 74" d="M141.967,149.371c-2.857,7.9-9.64-2.573-11.214,4.288-4.44,19.361,3.463,12.619,4.662,27.578.378,4.715-8.476,12.327-5.283,14.8,2,1.546,3.977,2.595,5.646,2.6,5.206.015,5.516-7.079,9.548-7.079,14.464,0-.569-54.5-6.049-67.522-.92-2.185,5.371,17.916,2.688,25.34Z" transform="translate(-119.549 -117.957)" fill="#94bd00"/>
    </g>
    <g id="Group_84" data-name="Group 84" transform="translate(428.412 464.244)">
      <path id="Path_72-2" data-name="Path 72" d="M135.141,154.6s-.247,26.27-4.692,46.593h4.692s.722-11.813.835-15.953c.2-7.518.807-30.64.807-30.64Z" transform="translate(-117.826 -80.425)" fill="#003180"/>
      <path id="Path_73-2" data-name="Path 73" d="M138.25,124.249c-12,36.5-17.52,70.475-12,78.6,3.638,5.362,10.609,13.771,15.309,13.786,5.637.018,5.973-8.422,10.339-8.422,15.661,0-.616-64.847-6.549-80.339-1-2.6-4.189-12.458-7.094-3.627Z" transform="translate(-124.1 -120.649)" fill="#aad900"/>
      <path id="Path_74-2" data-name="Path 74" d="M143.006,154.212c-3.094,9.4-10.438-3.061-12.142,5.1-4.808,23.036,3.75,15.014,5.048,32.813.41,5.611-9.178,14.666-5.72,17.607,2.161,1.84,4.307,3.087,6.114,3.091,5.637.017,5.973-8.422,10.339-8.422,15.661,0-.616-64.847-6.549-80.339-1-2.6,5.816,21.317,2.911,30.15Z" transform="translate(-118.851 -116.835)" fill="#94bd00"/>
    </g>
    <g id="Group_85" data-name="Group 85" transform="translate(618.052 484.331)">
      <path id="Path_72-3" data-name="Path 72" d="M133.524,154.6s-.162,22.079-3.075,39.159h3.075s.473-9.928.547-13.408c.134-6.318.529-25.751.529-25.751Z" transform="translate(-120.861 -92.259)" fill="#003180"/>
      <path id="Path_73-3" data-name="Path 73" d="M133.707,123.675c-8.15,30.674-11.895,59.231-8.15,66.064,2.47,4.506,7.2,11.574,10.394,11.587,3.827.015,4.055-7.079,7.019-7.079,10.633,0-.418-54.5-4.446-67.522-.676-2.185-2.844-10.47-4.816-3.048Z" transform="translate(-122.414 -120.649)" fill="#aad900"/>
      <path id="Path_74-3" data-name="Path 74" d="M138.322,149.371c-2.028,7.9-6.841-2.573-7.958,4.288-3.151,19.361,2.458,12.619,3.309,27.578.268,4.715-6.015,12.327-3.749,14.8,1.417,1.546,2.823,2.595,4.007,2.6,3.694.015,3.915-7.079,6.776-7.079,10.265,0-.4-54.5-4.293-67.522-.653-2.185,3.812,17.916,1.908,25.34Z" transform="translate(-119.995 -117.957)" fill="#94bd00"/>
    </g>
    <g id="Group_82" data-name="Group 82" transform="translate(96.469 482.412)">
      <path id="Path_72-4" data-name="Path 72" d="M134.138,154.6s-.194,22.079-3.689,39.159h3.689s.567-9.928.657-13.408c.161-6.318.635-25.751.635-25.751Z" transform="translate(-120.524 -92.259)" fill="#003180"/>
      <path id="Path_73-4" data-name="Path 73" d="M135.225,123.675c-9.438,30.674-13.775,59.231-9.438,66.064,2.861,4.506,8.341,11.574,12.036,11.587,4.432.015,4.7-7.079,8.128-7.079,12.313,0-.485-54.5-5.149-67.522-.783-2.185-3.294-10.47-5.577-3.048Z" transform="translate(-124.1 -120.649)" fill="#aad900"/>
      <path id="Path_74-4" data-name="Path 74" d="M140.1,149.371c-2.432,7.9-8.207-2.573-9.546,4.288-3.78,19.361,2.948,12.619,3.969,27.578.322,4.715-7.216,12.327-4.5,14.8,1.7,1.546,3.386,2.595,4.807,2.6,4.432.015,4.7-7.079,8.128-7.079,12.313,0-.485-54.5-5.149-67.522-.783-2.185,4.572,17.916,2.289,25.34Z" transform="translate(-121.109 -117.957)" fill="#94bd00"/>
    </g>
    <g id="Group_83" data-name="Group 83" transform="translate(149.35 455.389)">
      <path id="Path_22" data-name="Path 22" d="M75.059,140.482s-.374,32.753-7.1,58.086h7.1s1.092-14.727,1.264-19.889c.311-9.372,1.223-38.2,1.223-38.2H75.059Z" transform="translate(-49.394 -68.127)" fill="#003180"/>
      <path id="Path_23" data-name="Path 23" d="M56.631,166.285c-.552,3.348,2.854,6.131,6.378,6.131a6.274,6.274,0,0,0,6.372-5.818c.006-.1.006-.207.006-.311v1.267a2.961,2.961,0,0,0,5.917,0v.248a4.434,4.434,0,0,0,4.521,4.344h1.853A4.435,4.435,0,0,0,86.2,167.8v1.3a1.8,1.8,0,0,0,3.6,0v-2.5h.011a2.87,2.87,0,0,0,2.9,2.513,2.907,2.907,0,0,0,2.7-1.764,6.392,6.392,0,0,0,6.223,4.632c3.555,0,6.7-2.777,6.432-6.183-1-12.647,0-51.041,0-51.041,0-9.1-5.281-16.674-17.145-16.478-4.683.081-14.31.07-18.674-1.573-11.427-4.309-16.732,7.064-15.611,16.726,0,0,1.99,40.82,0,52.857Zm38.624.311H95.6a2.819,2.819,0,0,1-.193.743,6.289,6.289,0,0,1-.15-.743Z" transform="translate(-56.484 -95.765)" fill="#aad900"/>
      <path id="Path_24" data-name="Path 24" d="M80.4,139.659H80.4v-.311C80.4,139.452,80.4,139.555,80.4,139.659Z" transform="translate(-41.706 -68.828)" fill="#aad900"/>
      <path id="Path_25" data-name="Path 25" d="M64.539,139.54a5.864,5.864,0,0,1-.15.743,2.884,2.884,0,0,1-.193-.743h.341Z" transform="translate(-51.718 -68.709)" fill="#aad900"/>
      <path id="Path_26" data-name="Path 26" d="M64.539,139.54a5.864,5.864,0,0,1-.15.743,2.884,2.884,0,0,1-.193-.743h.341Z" transform="translate(-51.718 -68.709)" fill="#aad900"/>
    </g>
    <g id="Group_86" data-name="Group 86" transform="translate(538.431 439.66)">
      <path id="Path_22-2" data-name="Path 22" d="M76.284,140.482s-.438,38.4-8.328,68.1h8.328s1.281-17.267,1.482-23.319c.364-10.988,1.434-44.784,1.434-44.784H76.284Z" transform="translate(-46.193 -55.65)" fill="#003180"/>
      <path id="Path_23-2" data-name="Path 23" d="M56.637,169.279c-.575,3.49,2.975,6.391,6.649,6.391a6.541,6.541,0,0,0,6.642-6.065c.007-.108.007-.216.007-.324V170.6a3.087,3.087,0,0,0,6.168,0v.258a4.622,4.622,0,0,0,4.713,4.529h1.931a4.623,4.623,0,0,0,4.713-4.529v1.351a1.875,1.875,0,0,0,3.748,0V169.6h.012a2.992,2.992,0,0,0,3.019,2.619,3.03,3.03,0,0,0,2.819-1.839,6.664,6.664,0,0,0,6.487,4.829c3.706,0,6.986-2.894,6.7-6.445-1.037-13.184,0-53.208,0-53.208,0-9.49-5.506-17.382-17.873-17.178-4.881.084-14.918.073-19.467-1.64C61,92.252,55.468,104.108,56.637,114.179c0,0,2.075,42.553,0,55.1ZM96.9,169.6h.356a2.939,2.939,0,0,1-.2.774,6.558,6.558,0,0,1-.157-.774Z" transform="translate(-50.369 -86.8)" fill="#aad900"/>
      <path id="Path_24-2" data-name="Path 24" d="M80.4,139.712H80.4v-.364C80.4,139.469,80.4,139.591,80.4,139.712Z" transform="translate(-35.034 -56.667)" fill="#aad900"/>
      <path id="Path_25-2" data-name="Path 25" d="M64.6,139.54a6.874,6.874,0,0,1-.176.871,3.382,3.382,0,0,1-.226-.871h.4Z" transform="translate(-49.566 -56.495)" fill="#aad900"/>
      <path id="Path_26-2" data-name="Path 26" d="M64.6,139.54a6.874,6.874,0,0,1-.176.871,3.382,3.382,0,0,1-.226-.871h.4Z" transform="translate(-49.566 -56.495)" fill="#aad900"/>
    </g>
  </g>
</svg>
